  0
SECTION
  2
HEADER
  0
ENDSEC
  0
SECTION
  2
TABLES
  0
TABLE
  2
LAYER
 70
   1
  0
LAYER
  2
1
 70
    0
 62
    2
  6
CONTINUOUS
  0
ENDTAB
  0
ENDSEC
  0
SECTION
  2
BLOCKS
  0
ENDSEC
  0
SECTION
  2
ENTITIES
  0
POLYLINE
  8
1
 66
   1
 70
   1
 40
0.0
 41
0.0
  0
VERTEX
  8
1
 10
181575
 20
6493.28
  0
VERTEX
  8
1
 10
181575
 20
6493.27
  0
VERTEX
  8
1
 10
181575
 20
6493.27
  0
VERTEX
  8
1
 10
181575
 20
6493.27
  0
VERTEX
  8
1
 10
181655
 20
6413.27
  0
VERTEX
  8
1
 10
181655
 20
16413.3
  0
VERTEX
  8
1
 10
190775
 20
16413.3
  0
VERTEX
  8
1
 10
190775
 20
6526.42
  0
VERTEX
  8
1
 10
186255
 20
2006.42
  0
VERTEX
  8
1
 10
186255
 20
8610.01
  0
VERTEX
  8
1
 10
189060
 20
11415
  0
VERTEX
  8
1
 10
189003
 20
11471.6
  0
VERTEX
  8
1
 10
186215
 20
8683.15
  0
VERTEX
  8
1
 10
183426
 20
11471.6
  0
VERTEX
  8
1
 10
183370
 20
11415
  0
VERTEX
  8
1
 10
186175
 20
8610.01
  0
VERTEX
  8
1
 10
186175
 20
2006.41
  0
VERTEX
  8
1
 10
181655
 20
6526.41
  0
VERTEX
  8
1
 10
181655
 20
6413.27
  0
VERTEX
  8
1
 10
186158
 20
1909.68
  0
VERTEX
  8
1
 10
186158
 20
1909.82
  0
VERTEX
  8
1
 10
186159
 20
1909.46
  0
VERTEX
  8
1
 10
186160
 20
1908.71
  0
VERTEX
  8
1
 10
186161
 20
1907.96
  0
VERTEX
  8
1
 10
186161
 20
1907.23
  0
VERTEX
  8
1
 10
186162
 20
1906.51
  0
VERTEX
  8
1
 10
186163
 20
1905.8
  0
VERTEX
  8
1
 10
186164
 20
1905.11
  0
VERTEX
  8
1
 10
186165
 20
1904.42
  0
VERTEX
  8
1
 10
186166
 20
1903.75
  0
VERTEX
  8
1
 10
186167
 20
1903.1
  0
VERTEX
  8
1
 10
186168
 20
1902.46
  0
VERTEX
  8
1
 10
186169
 20
1901.83
  0
VERTEX
  8
1
 10
186170
 20
1901.21
  0
VERTEX
  8
1
 10
186171
 20
1900.61
  0
VERTEX
  8
1
 10
186172
 20
1900.02
  0
VERTEX
  8
1
 10
186173
 20
1899.44
  0
VERTEX
  8
1
 10
186174
 20
1898.88
  0
VERTEX
  8
1
 10
186175
 20
1898.53
  0
VERTEX
  8
1
 10
186175
 20
-16356.9
  0
VERTEX
  8
1
 10
186255
 20
-16356.9
  0
VERTEX
  8
1
 10
186255
 20
1898.54
  0
VERTEX
  8
1
 10
186255
 20
1898.88
  0
VERTEX
  8
1
 10
186256
 20
1899.44
  0
VERTEX
  8
1
 10
186257
 20
1900.01
  0
VERTEX
  8
1
 10
186258
 20
1900.6
  0
VERTEX
  8
1
 10
186259
 20
1901.21
  0
VERTEX
  8
1
 10
186260
 20
1901.82
  0
VERTEX
  8
1
 10
186261
 20
1902.45
  0
VERTEX
  8
1
 10
186262
 20
1903.1
  0
VERTEX
  8
1
 10
186263
 20
1903.75
  0
VERTEX
  8
1
 10
186264
 20
1904.42
  0
VERTEX
  8
1
 10
186265
 20
1905.11
  0
VERTEX
  8
1
 10
186266
 20
1905.8
  0
VERTEX
  8
1
 10
186267
 20
1906.51
  0
VERTEX
  8
1
 10
186268
 20
1907.23
  0
VERTEX
  8
1
 10
186269
 20
1907.96
  0
VERTEX
  8
1
 10
186270
 20
1908.71
  0
VERTEX
  8
1
 10
186270
 20
1909.46
  0
VERTEX
  8
1
 10
186271
 20
1910.05
  0
VERTEX
  8
1
 10
186271
 20
1909.92
  0
VERTEX
  8
1
 10
190855
 20
6493.27
  0
VERTEX
  8
1
 10
190855
 20
6493.27
  0
VERTEX
  8
1
 10
190855
 20
16493.3
  0
VERTEX
  8
1
 10
190775
 20
16493.3
  0
VERTEX
  8
1
 10
190775
 20
16493.3
  0
VERTEX
  8
1
 10
181655
 20
16493.3
  0
VERTEX
  8
1
 10
181655
 20
16493.3
  0
VERTEX
  8
1
 10
181575
 20
16493.3
  0
VERTEX
  8
1
 10
181575
 20
6493.29
  0
VERTEX
  8
1
 10
181575
 20
6493.28
  0
SEQEND
  0
ENDSEC
  0
EOF
